<svg xmlns="http://www.w3.org/2000/svg" xmlns:xlink="http://www.w3.org/1999/xlink" width="1080" zoomAndPan="magnify" viewBox="0 0 810 809.999993" height="1080" preserveAspectRatio="xMidYMid meet" version="1.0"><defs><filter x="0%" y="0%" width="100%" height="100%" id="6725338ad3"><feColorMatrix values="0 0 0 0 1 0 0 0 0 1 0 0 0 0 1 0 0 0 1 0" color-interpolation-filters="sRGB"/></filter><mask id="66dfb3a861"><g filter="url(#6725338ad3)"><rect x="-81" width="972" fill="#000000" y="-80.999999" height="971.999992" fill-opacity="0.6"/></g></mask><clipPath id="f9298d57d2"><path d="M 0.167969 9.167969 L 733.667969 9.167969 L 733.667969 742.667969 L 0.167969 742.667969 Z M 0.167969 9.167969 " clip-rule="nonzero"/></clipPath><clipPath id="93e07f7d08"><rect x="0" width="740" y="0" height="749"/></clipPath><clipPath id="26cbaba8e7"><path d="M 347 270.300781 L 463 270.300781 L 463 539.550781 L 347 539.550781 Z M 347 270.300781 " clip-rule="nonzero"/></clipPath><clipPath id="f4537e21d0"><path d="M 193.289062 308 L 309 308 L 309 501 L 193.289062 501 Z M 193.289062 308 " clip-rule="nonzero"/></clipPath></defs><g mask="url(#66dfb3a861)"><g transform="matrix(1, 0, 0, 1, 38, 29)"><g clip-path="url(#93e07f7d08)"><path fill="#d9efe5" d="M 710.113281 587.132812 C 710.113281 660.003906 651.011719 719.128906 578.117188 719.128906 L 155.703125 719.128906 C 82.816406 719.128906 23.707031 659.996094 23.707031 587.132812 L 23.707031 164.710938 C 23.707031 91.808594 82.824219 32.71875 155.703125 32.71875 L 578.125 32.71875 C 651.03125 32.71875 710.121094 91.816406 710.121094 164.710938 L 710.121094 587.132812 Z M 710.113281 587.132812 " fill-opacity="1" fill-rule="nonzero"/><g clip-path="url(#f9298d57d2)"><path fill="#d9efe5" d="M 578.125 742.660156 L 155.703125 742.660156 C 69.949219 742.660156 0.175781 672.886719 0.175781 587.132812 L 0.175781 164.710938 C 0.175781 78.957031 69.949219 9.167969 155.703125 9.167969 L 578.125 9.167969 C 663.878906 9.167969 733.660156 78.957031 733.660156 164.71875 L 733.660156 587.132812 C 733.652344 672.886719 663.878906 742.660156 578.125 742.660156 Z M 155.703125 56.28125 C 95.90625 56.28125 47.25 104.929688 47.25 164.71875 L 47.25 587.132812 C 47.25 646.949219 95.914062 695.589844 155.703125 695.589844 L 578.125 695.589844 C 637.9375 695.589844 686.582031 646.9375 686.582031 587.132812 L 686.582031 164.710938 C 686.582031 104.914062 637.929688 56.273438 578.125 56.273438 L 155.703125 56.273438 Z M 155.703125 56.28125 " fill-opacity="1" fill-rule="nonzero"/></g></g></g></g><g clip-path="url(#26cbaba8e7)"><path fill="#4cd490" d="M 449.773438 271.277344 C 447.816406 270.675781 445.710938 270.300781 443.679688 270.300781 C 435.40625 270.300781 428.03125 275.632812 425.398438 283.445312 L 348.371094 514.230469 C 347.691406 516.183594 347.390625 518.214844 347.390625 520.316406 C 347.390625 530.910156 356.117188 539.550781 366.648438 539.550781 C 374.925781 539.550781 382.296875 534.214844 384.929688 526.402344 L 461.960938 295.617188 C 462.636719 293.664062 462.9375 291.558594 462.9375 289.53125 C 462.9375 281.269531 457.597656 273.90625 449.773438 271.277344 " fill-opacity="1" fill-rule="nonzero"/></g><g clip-path="url(#f4537e21d0)"><path fill="#4cd490" d="M 303.234375 314.398438 C 299.625 310.792969 294.734375 308.761719 289.617188 308.761719 C 284.503906 308.761719 279.613281 310.792969 276.003906 314.398438 L 198.972656 391.328125 C 195.363281 394.933594 193.332031 399.816406 193.332031 404.925781 C 193.332031 410.03125 195.363281 414.914062 198.972656 418.523438 L 276.003906 495.449219 C 279.613281 498.90625 284.429688 500.859375 289.394531 500.859375 C 299.925781 500.859375 308.652344 492.144531 308.652344 481.628906 C 308.652344 476.667969 306.695312 471.859375 303.234375 468.253906 L 239.820312 404.925781 L 303.234375 341.59375 C 306.84375 337.988281 308.875 333.105469 308.875 327.996094 C 308.875 322.886719 306.84375 318.003906 303.234375 314.398438 " fill-opacity="1" fill-rule="nonzero"/></g><path fill="#4cd490" d="M 611.355469 391.328125 L 534.324219 314.398438 C 530.714844 310.941406 525.902344 308.988281 520.9375 308.988281 C 510.40625 308.988281 501.679688 317.703125 501.679688 328.222656 C 501.679688 333.179688 503.632812 337.988281 507.09375 341.59375 L 570.507812 404.925781 L 507.09375 468.253906 C 503.332031 471.859375 501.226562 476.894531 501.226562 482.078125 C 501.226562 492.671875 509.878906 501.308594 520.484375 501.308594 C 525.675781 501.308594 530.714844 499.207031 534.324219 495.449219 L 611.355469 418.523438 C 614.96875 414.914062 617 410.03125 617 404.925781 C 617 399.816406 614.96875 394.933594 611.355469 391.328125 " fill-opacity="1" fill-rule="nonzero"/></svg>