<svg xmlns="http://www.w3.org/2000/svg" xmlns:xlink="http://www.w3.org/1999/xlink" width="1080" zoomAndPan="magnify" viewBox="0 0 810 809.999993" height="1080" preserveAspectRatio="xMidYMid meet" version="1.0"><defs><filter x="0%" y="0%" width="100%" height="100%" id="f04646f5ce"><feColorMatrix values="0 0 0 0 1 0 0 0 0 1 0 0 0 0 1 0 0 0 1 0" color-interpolation-filters="sRGB"/></filter><mask id="9d3db6dff1"><g filter="url(#f04646f5ce)"><rect x="-81" width="972" fill="#000000" y="-80.999999" height="971.999992" fill-opacity="0.6"/></g></mask><clipPath id="9e2d7cfccc"><path d="M 0.917969 9.167969 L 734.417969 9.167969 L 734.417969 742.667969 L 0.917969 742.667969 Z M 0.917969 9.167969 " clip-rule="nonzero"/></clipPath><clipPath id="94277a996b"><rect x="0" width="741" y="0" height="749"/></clipPath></defs><g mask="url(#9d3db6dff1)"><g transform="matrix(1, 0, 0, 1, 32, 29)"><g clip-path="url(#94277a996b)"><path fill="#fdf0dc" d="M 710.863281 587.132812 C 710.863281 660.003906 651.761719 719.128906 578.867188 719.128906 L 156.453125 719.128906 C 83.566406 719.128906 24.457031 659.996094 24.457031 587.132812 L 24.457031 164.710938 C 24.457031 91.808594 83.574219 32.71875 156.453125 32.71875 L 578.875 32.71875 C 651.78125 32.71875 710.871094 91.816406 710.871094 164.710938 L 710.871094 587.132812 Z M 710.863281 587.132812 " fill-opacity="1" fill-rule="nonzero"/><g clip-path="url(#9e2d7cfccc)"><path fill="#fdf0dc" d="M 578.875 742.660156 L 156.453125 742.660156 C 70.699219 742.660156 0.925781 672.886719 0.925781 587.132812 L 0.925781 164.710938 C 0.925781 78.957031 70.699219 9.167969 156.453125 9.167969 L 578.875 9.167969 C 664.628906 9.167969 734.410156 78.957031 734.410156 164.71875 L 734.410156 587.132812 C 734.402344 672.886719 664.628906 742.660156 578.875 742.660156 Z M 156.453125 56.28125 C 96.65625 56.28125 48 104.929688 48 164.71875 L 48 587.132812 C 48 646.949219 96.664062 695.589844 156.453125 695.589844 L 578.875 695.589844 C 638.6875 695.589844 687.332031 646.9375 687.332031 587.132812 L 687.332031 164.710938 C 687.332031 104.914062 638.679688 56.273438 578.875 56.273438 L 156.453125 56.273438 Z M 156.453125 56.28125 " fill-opacity="1" fill-rule="nonzero"/></g></g></g></g><path fill="#efa22a" d="M 606.726562 580.605469 L 573.964844 498.6875 C 573.058594 496.429688 571.839844 494.375 570.394531 492.535156 C 574.707031 487.714844 577.410156 481.425781 577.410156 474.453125 L 577.410156 269.386719 C 577.410156 254.390625 565.152344 242.132812 550.15625 242.132812 L 493.039062 242.132812 L 472.824219 260.84375 L 550.15625 260.84375 C 554.851562 260.84375 558.699219 264.691406 558.699219 269.386719 L 558.699219 474.453125 C 558.699219 479.097656 554.925781 482.949219 550.300781 483.03125 L 249.484375 483.03125 C 244.796875 482.949219 241.023438 479.097656 241.023438 474.453125 L 241.023438 269.386719 C 241.023438 264.691406 244.871094 260.84375 249.628906 260.84375 L 397.449219 260.84375 L 414.792969 242.132812 L 249.628906 242.132812 C 234.566406 242.132812 222.308594 254.390625 222.308594 269.386719 L 222.308594 474.453125 C 222.308594 481.425781 225.015625 487.714844 229.328125 492.53125 C 227.882812 494.375 226.664062 496.429688 225.757812 498.695312 L 192.992188 580.605469 C 189.917969 588.289062 190.855469 596.976562 195.496094 603.824219 C 200.136719 610.679688 207.847656 614.773438 216.128906 614.773438 L 583.59375 614.773438 C 591.871094 614.773438 599.585938 610.679688 604.226562 603.824219 C 608.867188 596.96875 609.804688 588.289062 606.726562 580.605469 Z M 588.75 593.351562 C 588.199219 594.171875 586.582031 596.085938 583.59375 596.085938 L 216.128906 596.085938 C 213.144531 596.085938 211.523438 594.171875 210.96875 593.351562 C 210.410156 592.527344 209.234375 590.316406 210.339844 587.539062 L 243.105469 505.636719 C 244.058594 503.257812 246.328125 501.71875 248.890625 501.71875 L 550.832031 501.71875 C 553.390625 501.71875 555.660156 503.257812 556.617188 505.628906 L 589.378906 587.546875 C 590.484375 590.316406 589.3125 592.527344 588.75 593.351562 Z M 588.75 593.351562 " fill-opacity="1" fill-rule="nonzero"/><path fill="#efa22a" d="M 435.160156 543.648438 L 364.566406 543.648438 C 362.324219 543.648438 360.394531 545.242188 359.976562 547.445312 L 353.746094 580.144531 C 353.484375 581.511719 353.851562 582.925781 354.738281 584 C 355.625 585.070312 356.941406 585.691406 358.335938 585.691406 L 441.386719 585.691406 C 442.78125 585.691406 444.101562 585.070312 444.988281 584 C 445.878906 582.925781 446.238281 581.511719 445.976562 580.144531 L 439.746094 547.445312 C 439.328125 545.242188 437.40625 543.648438 435.160156 543.648438 Z M 363.980469 576.347656 L 368.429688 552.992188 L 431.292969 552.992188 L 435.742188 576.347656 Z M 363.980469 576.347656 " fill-opacity="1" fill-rule="nonzero"/><path fill="#efa22a" d="M 475.691406 328.199219 C 469.890625 321.941406 462 318.421875 453.457031 318.160156 C 445.046875 317.898438 436.898438 320.964844 430.703125 326.765625 C 424.507812 332.636719 420.921875 340.460938 420.660156 349 C 420.59375 353.304688 419.683594 357.542969 418.117188 361.585938 C 417.464844 363.347656 416.226562 365.5625 415.183594 367.390625 C 414.011719 369.214844 412.640625 371.300781 410.945312 373.0625 C 404.945312 380.167969 395.882812 385.191406 386.234375 386.820312 C 375.667969 388.515625 364.519531 386.429688 355.585938 381.148438 C 352.71875 379.515625 349.980469 377.5625 347.4375 375.277344 C 345.609375 375.472656 343.71875 375.539062 341.765625 375.605469 L 340.523438 375.667969 C 337.785156 375.667969 331.984375 375.410156 325.332031 373.582031 C 331.003906 382.515625 338.699219 389.820312 347.632812 394.90625 C 359.628906 401.882812 374.5625 404.683594 388.777344 402.46875 C 402.273438 400.1875 414.464844 393.40625 422.8125 383.625 C 425.226562 381.015625 426.984375 378.277344 428.679688 375.605469 C 430.179688 373.0625 431.8125 370.128906 432.855469 367.257812 C 435.070312 361.585938 436.308594 355.652344 436.503906 349.457031 C 436.636719 345.21875 438.394531 341.242188 441.527344 338.308594 C 444.65625 335.4375 448.699219 333.875 453.003906 334.003906 C 457.304688 334.070312 461.21875 335.894531 464.21875 339.023438 C 467.085938 342.15625 468.652344 346.199219 468.519531 350.5 C 468.457031 351.480469 468.390625 352.457031 468.128906 353.304688 L 467.867188 354.933594 C 465.714844 364.390625 462.128906 373.125 457.042969 381.082031 C 454.4375 385.386719 451.4375 388.90625 448.765625 391.96875 C 445.175781 396.011719 441.984375 399.011719 438.65625 401.492188 C 424.964844 412.574219 406.96875 418.835938 389.363281 418.574219 C 371.886719 418.25 355.324219 412.25 342.609375 401.554688 C 333.222656 393.796875 326.113281 383.820312 322.007812 372.539062 C 316.136719 370.386719 310.074219 367.0625 305.25 361.453125 C 304.269531 360.410156 303.488281 359.238281 302.902344 358 C 302.445312 360.019531 302.511719 362.171875 302.902344 364.195312 C 306.75 383.558594 317.246094 401.164062 332.503906 413.683594 C 347.828125 426.660156 367.976562 434.027344 389.101562 434.417969 L 390.339844 434.417969 C 411.46875 434.417969 432.070312 427.179688 448.503906 413.945312 C 452.414062 410.945312 456.195312 407.425781 460.632812 402.535156 C 463.695312 399.011719 467.28125 394.710938 470.476562 389.558594 C 476.476562 380.105469 480.777344 369.605469 483.257812 358.390625 L 483.648438 356.761719 C 484.039062 354.871094 484.300781 352.914062 484.367188 350.957031 C 484.625 342.414062 481.5625 334.394531 475.691406 328.199219 Z M 475.691406 328.199219 " fill-opacity="1" fill-rule="nonzero"/><path fill="#efa22a" d="M 490.988281 202.566406 C 483.246094 195.390625 471.105469 195.835938 463.917969 203.585938 L 368.730469 306.214844 C 343.21875 306.671875 329.863281 326.097656 325.96875 337.601562 C 325.214844 338.765625 323.457031 340.753906 319.335938 340.753906 C 319.292969 340.753906 319.253906 340.753906 319.214844 340.753906 C 315.707031 340.855469 312.753906 342.679688 311.332031 345.742188 C 309.902344 348.832031 310.410156 352.488281 312.625 355.0625 C 321.296875 365.121094 336.273438 365.871094 340.527344 365.871094 C 340.996094 365.871094 341.335938 365.863281 341.519531 365.859375 C 357.058594 365.507812 369.234375 360.789062 377.714844 351.820312 C 386.660156 342.355469 388.828125 330.777344 389.339844 324.941406 L 490.996094 230.660156 C 491.332031 230.347656 491.691406 229.992188 492.011719 229.644531 C 495.492188 225.894531 497.304688 221.007812 497.109375 215.894531 C 496.917969 210.78125 494.746094 206.046875 490.988281 202.566406 Z M 341.140625 352.140625 C 339.261719 352.210938 335.464844 351.96875 331.664062 350.925781 C 334.328125 349.160156 336.5625 346.769531 338.226562 343.832031 L 338.8125 342.480469 C 339.09375 341.578125 345.304688 322.398438 365.75 320.167969 C 366.355469 321.980469 367.300781 323.699219 368.667969 325.171875 C 370.359375 326.996094 372.476562 328.25 374.792969 328.957031 C 373.796875 333.019531 371.8125 338.089844 367.746094 342.390625 C 361.875 348.597656 352.949219 351.878906 341.140625 352.140625 Z M 481.664062 220.605469 L 382.503906 312.132812 L 382.207031 311.867188 L 473.976562 212.917969 C 475.046875 211.761719 476.503906 211.179688 477.964844 211.179688 C 479.289062 211.179688 480.617188 211.660156 481.664062 212.628906 C 482.726562 213.617188 483.34375 214.960938 483.398438 216.414062 C 483.453125 217.863281 482.941406 219.25 481.664062 220.605469 Z M 481.664062 220.605469 " fill-opacity="1" fill-rule="nonzero"/></svg>