<svg xmlns="http://www.w3.org/2000/svg" xmlns:xlink="http://www.w3.org/1999/xlink" width="1080" zoomAndPan="magnify" viewBox="0 0 810 809.999993" height="1080" preserveAspectRatio="xMidYMid meet" version="1.0"><defs><filter x="0%" y="0%" width="100%" height="100%" id="108fa022cd"><feColorMatrix values="0 0 0 0 1 0 0 0 0 1 0 0 0 0 1 0 0 0 1 0" color-interpolation-filters="sRGB"/></filter><mask id="eb479cc86f"><g filter="url(#108fa022cd)"><rect x="-81" width="972" fill="#000000" y="-80.999999" height="971.999992" fill-opacity="0.6"/></g></mask><clipPath id="d3beb426cb"><path d="M 0.917969 9.167969 L 734.417969 9.167969 L 734.417969 742.667969 L 0.917969 742.667969 Z M 0.917969 9.167969 " clip-rule="nonzero"/></clipPath><clipPath id="81fa86d6a3"><rect x="0" width="741" y="0" height="749"/></clipPath><clipPath id="68965cb8a2"><path d="M 202 205 L 605 205 L 605 607.585938 L 202 607.585938 Z M 202 205 " clip-rule="nonzero"/></clipPath></defs><g mask="url(#eb479cc86f)"><g transform="matrix(1, 0, 0, 1, 32, 29)"><g clip-path="url(#81fa86d6a3)"><path fill="#8e7cf6" d="M 710.863281 587.132812 C 710.863281 660.003906 651.761719 719.128906 578.867188 719.128906 L 156.453125 719.128906 C 83.566406 719.128906 24.457031 659.996094 24.457031 587.132812 L 24.457031 164.710938 C 24.457031 91.808594 83.574219 32.71875 156.453125 32.71875 L 578.875 32.71875 C 651.78125 32.71875 710.871094 91.816406 710.871094 164.710938 L 710.871094 587.132812 Z M 710.863281 587.132812 " fill-opacity="1" fill-rule="nonzero"/><g clip-path="url(#d3beb426cb)"><path fill="#8e7cf6" d="M 578.875 742.660156 L 156.453125 742.660156 C 70.699219 742.660156 0.925781 672.886719 0.925781 587.132812 L 0.925781 164.710938 C 0.925781 78.957031 70.699219 9.167969 156.453125 9.167969 L 578.875 9.167969 C 664.628906 9.167969 734.410156 78.957031 734.410156 164.71875 L 734.410156 587.132812 C 734.402344 672.886719 664.628906 742.660156 578.875 742.660156 Z M 156.453125 56.28125 C 96.65625 56.28125 48 104.929688 48 164.71875 L 48 587.132812 C 48 646.949219 96.664062 695.589844 156.453125 695.589844 L 578.875 695.589844 C 638.6875 695.589844 687.332031 646.9375 687.332031 587.132812 L 687.332031 164.710938 C 687.332031 104.914062 638.679688 56.273438 578.875 56.273438 L 156.453125 56.273438 Z M 156.453125 56.28125 " fill-opacity="1" fill-rule="nonzero"/></g></g></g></g><g clip-path="url(#68965cb8a2)"><path fill="#bc7af2" d="M 587.117188 205.753906 L 354.707031 277.804688 C 354.707031 277.804688 288.699219 277.804688 288.699219 277.804688 C 191.929688 278.417969 168.894531 413.132812 259.472656 446.175781 C 259.472656 446.175781 259.472656 565.261719 259.472656 565.261719 C 259.472656 588.605469 278.457031 607.585938 301.800781 607.585938 C 325.148438 607.585938 344.128906 588.605469 344.128906 565.261719 L 344.128906 451.484375 L 354.707031 451.484375 L 587.117188 523.535156 C 595.355469 526.355469 604.761719 519.480469 604.5 510.722656 C 604.5 510.726562 604.5 218.566406 604.5 218.566406 C 604.71875 209.84375 595.402344 202.898438 587.117188 205.753906 Z M 228.683594 364.644531 C 227.988281 332.253906 256.46875 304.007812 288.699219 304.632812 C 288.699219 304.632812 343.320312 304.632812 343.320312 304.632812 L 343.320312 424.65625 L 330.714844 424.65625 C 320.894531 424.015625 284.691406 426 275.730469 423.230469 C 248.46875 417.320312 228.683594 392.679688 228.683594 364.644531 Z M 317.300781 565.261719 C 316.941406 585.59375 286.671875 585.648438 286.304688 565.261719 C 286.304688 565.261719 286.304688 451.460938 286.304688 451.460938 C 286.226562 451.234375 316.425781 451.675781 317.300781 451.484375 C 317.300781 451.484375 317.300781 565.261719 317.300781 565.261719 Z M 577.667969 492.515625 L 370.148438 428.179688 L 370.148438 301.109375 L 577.667969 236.773438 Z M 577.667969 492.515625 " fill-opacity="1" fill-rule="nonzero"/></g></svg>