<svg xmlns="http://www.w3.org/2000/svg" xmlns:xlink="http://www.w3.org/1999/xlink" width="1080" zoomAndPan="magnify" viewBox="0 0 810 809.999993" height="1080" preserveAspectRatio="xMidYMid meet" version="1.0"><defs><filter x="0%" y="0%" width="100%" height="100%" id="5ba242bdcc"><feColorMatrix values="0 0 0 0 1 0 0 0 0 1 0 0 0 0 1 0 0 0 1 0" color-interpolation-filters="sRGB"/></filter><mask id="d632608952"><g filter="url(#5ba242bdcc)"><rect x="-81" width="972" fill="#000000" y="-80.999999" height="971.999992" fill-opacity="0.6"/></g></mask><clipPath id="1714cae207"><path d="M 0.917969 9.167969 L 734.417969 9.167969 L 734.417969 742.667969 L 0.917969 742.667969 Z M 0.917969 9.167969 " clip-rule="nonzero"/></clipPath><clipPath id="564a106c1e"><rect x="0" width="741" y="0" height="749"/></clipPath><clipPath id="1a3e4a8c57"><path d="M 202.097656 202.097656 L 607 202.097656 L 607 607 L 202.097656 607 Z M 202.097656 202.097656 " clip-rule="nonzero"/></clipPath></defs><g mask="url(#d632608952)"><g transform="matrix(1, 0, 0, 1, 32, 29)"><g clip-path="url(#564a106c1e)"><path fill="#4fd0f8" d="M 710.863281 587.132812 C 710.863281 660.003906 651.761719 719.128906 578.867188 719.128906 L 156.453125 719.128906 C 83.566406 719.128906 24.457031 659.996094 24.457031 587.132812 L 24.457031 164.710938 C 24.457031 91.808594 83.574219 32.71875 156.453125 32.71875 L 578.875 32.71875 C 651.78125 32.71875 710.871094 91.816406 710.871094 164.710938 L 710.871094 587.132812 Z M 710.863281 587.132812 " fill-opacity="1" fill-rule="nonzero"/><g clip-path="url(#1714cae207)"><path fill="#4fd0f8" d="M 578.875 742.660156 L 156.453125 742.660156 C 70.699219 742.660156 0.925781 672.886719 0.925781 587.132812 L 0.925781 164.710938 C 0.925781 78.957031 70.699219 9.167969 156.453125 9.167969 L 578.875 9.167969 C 664.628906 9.167969 734.410156 78.957031 734.410156 164.71875 L 734.410156 587.132812 C 734.402344 672.886719 664.628906 742.660156 578.875 742.660156 Z M 156.453125 56.28125 C 96.65625 56.28125 48 104.929688 48 164.71875 L 48 587.132812 C 48 646.949219 96.664062 695.589844 156.453125 695.589844 L 578.875 695.589844 C 638.6875 695.589844 687.332031 646.9375 687.332031 587.132812 L 687.332031 164.710938 C 687.332031 104.914062 638.679688 56.273438 578.875 56.273438 L 156.453125 56.273438 Z M 156.453125 56.28125 " fill-opacity="1" fill-rule="nonzero"/></g></g></g></g><g clip-path="url(#1a3e4a8c57)"><path fill="#04aadd" d="M 512.152344 253.230469 C 507.636719 252.964844 504.191406 249.085938 504.453125 244.570312 C 504.71875 240.050781 508.597656 236.605469 513.117188 236.871094 L 564.546875 240.050781 C 569.066406 240.316406 572.511719 244.195312 572.246094 248.710938 C 572.230469 249.003906 572.195312 249.292969 572.148438 249.578125 L 563.550781 300.386719 C 562.808594 304.851562 558.585938 307.867188 554.121094 307.121094 C 549.65625 306.378906 546.640625 302.15625 547.382812 297.691406 L 552.613281 266.796875 L 443.414062 343.765625 C 440.652344 345.707031 436.859375 345.804688 433.953125 343.738281 L 376.730469 303.117188 L 299.179688 364.816406 C 295.636719 367.632812 290.480469 367.046875 287.664062 363.5 C 284.84375 359.957031 285.433594 354.804688 288.976562 351.984375 L 371.34375 286.453125 C 374.367188 284.050781 378.570312 284.128906 381.488281 286.410156 L 438.710938 327.03125 L 540.882812 255.007812 Z M 340.222656 202.097656 C 263.9375 202.097656 202.097656 263.9375 202.097656 340.222656 C 202.097656 416.507812 263.9375 478.347656 340.222656 478.347656 C 371.402344 478.347656 400.167969 468.011719 423.285156 450.582031 L 456.402344 483.695312 C 452.488281 490.46875 453.417969 499.328125 459.195312 505.109375 L 555.046875 600.957031 C 561.9375 607.847656 573.210938 607.847656 580.097656 600.957031 L 600.957031 580.097656 C 607.847656 573.210938 607.847656 561.9375 600.957031 555.046875 L 505.109375 459.195312 C 499.328125 453.417969 490.46875 452.488281 483.695312 456.402344 L 450.585938 423.285156 C 468.011719 400.167969 478.347656 371.402344 478.347656 340.222656 C 478.347656 339.898438 478.335938 339.578125 478.335938 339.253906 C 464.117188 349.273438 449.898438 359.296875 435.679688 369.320312 C 423.226562 410.230469 385.203125 440 340.222656 440 C 285.117188 440 240.445312 395.328125 240.445312 340.222656 C 240.445312 285.117188 285.117188 240.445312 340.222656 240.445312 C 382.011719 240.445312 417.792969 266.140625 432.648438 302.585938 L 438.746094 306.914062 L 467.554688 286.609375 C 446.621094 236.953125 397.492188 202.097656 340.222656 202.097656 Z M 340.222656 202.097656 " fill-opacity="1" fill-rule="evenodd"/></g></svg>